<svg xmlns="http://www.w3.org/2000/svg" width="330" height="99" viewBox="0 0 330 99">
    <defs>
        <linearGradient id="knoxville-chamber-logo-a" x1="49.949%" x2="49.949%" y1="165.302%" y2="-9.177%">
            <stop offset="0%" stop-color="#BFC930"></stop>
            <stop offset="24%" stop-color="#BCC831"></stop>
            <stop offset="44%" stop-color="#B1C434"></stop>
            <stop offset="62%" stop-color="#A0BD3A"></stop>
            <stop offset="80%" stop-color="#88B441"></stop>
            <stop offset="97%" stop-color="#68A84B"></stop>
            <stop offset="100%" stop-color="#61A54D"></stop>
        </linearGradient>
        <linearGradient id="knoxville-chamber-logo-b" x1="50.152%" x2="50.152%" y1="-1.605%" y2="167.564%">
            <stop offset="0%" stop-color="#25A9E0"></stop>
            <stop offset="20%" stop-color="#24A6DD"></stop>
            <stop offset="36%" stop-color="#229ED2"></stop>
            <stop offset="51%" stop-color="#1D90C1"></stop>
            <stop offset="66%" stop-color="#177CA8"></stop>
            <stop offset="80%" stop-color="#0F6389"></stop>
            <stop offset="93%" stop-color="#054463"></stop>
            <stop offset="100%" stop-color="#00334D"></stop>
        </linearGradient>
        <linearGradient id="knoxville-chamber-logo-c" x1="377941%" x2="377941%" y1="21734%" y2="16962%">
            <stop offset="0%" stop-color="#BFC930"></stop>
            <stop offset="24%" stop-color="#BCC831"></stop>
            <stop offset="44%" stop-color="#B1C434"></stop>
            <stop offset="62%" stop-color="#A0BD3A"></stop>
            <stop offset="80%" stop-color="#88B441"></stop>
            <stop offset="97%" stop-color="#68A84B"></stop>
            <stop offset="100%" stop-color="#61A54D"></stop>
        </linearGradient>
        <linearGradient id="knoxville-chamber-logo-d" x1="376880%" x2="376880%" y1="18918%" y2="22501%">
            <stop offset="0%" stop-color="#25A9E0"></stop>
            <stop offset="20%" stop-color="#24A6DD"></stop>
            <stop offset="36%" stop-color="#229ED2"></stop>
            <stop offset="51%" stop-color="#1D90C1"></stop>
            <stop offset="66%" stop-color="#177CA8"></stop>
            <stop offset="80%" stop-color="#0F6389"></stop>
            <stop offset="93%" stop-color="#054463"></stop>
            <stop offset="100%" stop-color="#00334D"></stop>
        </linearGradient>
        <radialGradient id="knoxville-chamber-logo-e" cx="49.876%" cy="113.784%" r="53.424%" fx="49.876%" fy="113.784%" gradientTransform="matrix(.46479 0 0 1 .267 0)">
            <stop offset="0%" stop-color="#FCB912"></stop>
            <stop offset="100%" stop-color="#F16A22"></stop>
        </radialGradient>
    </defs>
    <g fill="none" fill-rule="evenodd" transform="translate(2 2)">
        <circle class="logo-inner-graphic svg-desktop-transparent" cx="47.5" cy="47.5" r="44.5" fill="#FFF" fill-rule="nonzero" stroke="#231F20"></circle>
        <path class="svg-desktop-white" fill="#FF8200" fill-rule="nonzero" d="M108.013,21 L114.291,21 L114.291,32.833 L125.876,21 L133.462,21 L121.85,32.459 L134,48 L126.447,48 L117.6,36.508 L114.278,39.749 L114.278,48 L108,48 L108.013,21 Z M136,21 L141.707,21 L154.881,37.62 L154.881,21 L161,21 L161,48 L155.764,48 L142.106,30.828 L142.106,47.987 L136,47.987 L136,21 Z M164,35.08 L164,35 C164,27.301 170.327,21 179.04,21 C187.752,21 194,27.229 194,34.92 L194,35 C194,42.692 187.666,49 178.954,49 C170.242,49 164,42.778 164,35.08 Z M187.509,35.08 L187.509,35 C187.538309,32.7255117 186.645901,30.5359743 185.035,28.93 C183.427407,27.3266935 181.237023,26.4459196 178.967,26.49 C176.71241,26.4291182 174.531583,27.2959543 172.934,28.888 C171.333412,30.4827604 170.453488,32.6619824 170.498,34.921 L170.498,35 C170.468691,37.2744883 171.361099,39.4640257 172.972,41.07 C174.579351,42.6730542 176.769322,43.5538073 179.039,43.51 C181.29359,43.5708818 183.474417,42.7040457 185.072,41.112 C186.672954,39.5174072 187.553249,37.3381643 187.509,35.079 L187.509,35.08 Z"></path>
        <polygon class="svg-desktop-white" fill="#FF8200" fill-rule="nonzero" points="200.84 34.267 191.42 21 198.647 21 204.559 29.75 210.524 21 217.586 21 208.146 34.194 218 48 210.754 48 204.428 38.717 198.055 47.974 191 47.974"></polygon>
        <path class="svg-desktop-white" fill="#FF8200" fill-rule="nonzero" d="M215,21 L221.998,21 L229.581,39.885 L237.144,21.02 L244,21.02 L232.313,48 L226.708,48 L215,21 Z M245,21 L251,21 L251,48 L245,48 L245,21 Z M254,21 L260.127,21 L260.127,42.601 L274,42.601 L274,48 L254,48 L254,21 Z M277,21 L283.122,21 L283.122,42.601 L297,42.601 L297,48 L277,48 L277,21 Z M299,21 L320.792,21 L320.792,26.273 L305.327,26.273 L305.327,31.764 L318.936,31.764 L318.936,37.038 L305.314,37.038 L305.314,42.727 L321,42.727 L321,48 L299,48 L299,21 Z"></path>
        <path class="svg-desktop-white" fill="#37474F" fill-rule="nonzero" d="M124.03,69.511 C122.502853,70.9802783 120.462142,71.7948401 118.343,71.781 C114.544,71.781 111.68,69.089 111.68,65.459 C111.68,61.829 114.544,59.229 118.343,59.229 C120.392197,59.2157402 122.36862,59.9879874 123.866,61.387 L124.36,61.802 L126.881,59.387 L126.263,58.865 C124.098387,56.9264921 121.266853,55.902122 118.363,56.007 C112.549,56.007 108,60.179 108,65.551 C108,70.924 112.418,74.996 118.283,74.996 C121.302843,75.074645 124.226879,73.932573 126.394,71.828 L127,71.28 L124.498,69.096 L124.031,69.511 L124.03,69.511 Z M147.346,63.364 L137.647,63.364 L137.647,56 L134,56 L134,74 L137.647,74 L137.647,66.533 L147.347,66.533 L147.347,74 L151,74 L151,56 L147.346,56 L147.346,63.364 Z M168.532,56 L159,75 L162.874,75 L165.157,70.404 L174.749,70.404 L177.006,75 L181,75 L171.468,56 L168.532,56 Z M166.755,67.148 L169.97,60.678 L173.172,67.148 L166.755,67.148 Z M198,64.577 L191.316,56 L188,56 L188,74 L191.596,74 L191.596,61.97 L197.552,69.444 L198.388,69.444 L204.344,61.944 L204.344,74 L208,74 L208,56 L204.684,56 L198,64.577 Z M230.933,64.584 C232.201075,63.7628271 232.954515,62.344453 232.925,60.834 C232.928308,59.60104 232.383468,58.4303853 231.438,57.639 C230.157,56.568 228.25,56 225.935,56 L217,56 L217,74 L226.293,74 C230.973,74 234,71.941 234,68.72 C233.973,66.856 232.951,65.468 230.933,64.584 Z M226.326,70.902 L220.598,70.902 L220.598,66.468 L225.941,66.468 C227.581,66.468 230.323,66.746 230.323,68.65 C230.323,70.734 227.256,70.896 226.326,70.896 L226.326,70.902 Z M225.722,59.104 C226.552,59.104 229.247,59.246 229.247,61.144 C229.247,63.17 226.665,63.396 225.557,63.396 L220.597,63.396 L220.597,59.104 L225.722,59.104 Z M245.515,66.488 L255.67,66.488 L255.67,63.364 L245.515,63.364 L245.515,59.124 L256.865,59.124 L256.865,56 L242,56 L242,74 L257,74 L257,70.876 L245.515,70.876 L245.515,66.488 Z M277.93,66.959 C280.804,66.152 282.484,64.235 282.484,61.641 C282.500438,60.1848018 281.876732,58.794809 280.778,57.839 C279.42,56.66 277.333,56 274.872,56 L266,56 L266,74 L269.59,74 L269.59,67.546 L273.966,67.546 L279.48,74 L284,74 L277.93,66.959 Z M269.59,59.156 L274.734,59.156 C275.974,59.156 278.875,59.408 278.875,61.738 C278.875,63.732 276.631,64.442 274.708,64.442 L269.59,64.442 L269.59,59.156 Z"></path>
        <path class="svg-desktop-white" d="M26.87,17.271 L27.438,16.889 L28.092,16.479 L28.674,16.119 L29.328,15.736 L29.93,15.404 L30.583,15.044 L31.198,14.732 L31.852,14.399 L32.506,14.109 L33.212,13.805 L33.866,13.544 L34.585,13.268 L35.239,13.028 L35.971,12.787 L36.625,12.574 L37.377,12.355 L38.031,12.178 L38.802,11.988 L39.456,11.832 L40.254,11.676 L40.908,11.549 L41.738,11.421 L42.392,11.329 L43.275,11.237 L43.87,11.174 L44.87,11.11 L46.884,11.11 C51.3802936,11.1083487 55.8343352,11.9776951 60,13.67 C48.703,8.94 35.974,10.56 26,18 L26.307,17.774 L26.87,17.271 Z M62,13 L62.31,13.12 L62,13 Z"></path>
        <path class="svg-desktop-white" fill="url(#knoxville-chamber-logo-a)" fill-rule="nonzero" d="M31.048,64 L42,57.188 C30.804,51.338 19.069,47.974 10,46 L10,47.257 C10.0045335,48.8747998 10.1147683,50.4905749 10.33,52.094 C17.5910179,55.4095312 24.5267593,59.3954817 31.047,64 L31.048,64 Z"></path>
        <path class="svg-desktop-white" fill="url(#knoxville-chamber-logo-b)" fill-rule="nonzero" d="M20.378,71.537 L27,67.38 C22.3146406,63.933434 17.3793527,60.8402302 12.235,58.126 L12,58 C13.2991438,62.579384 15.467963,66.8657558 18.388,70.625 C18.792,71.088 19.21,71.557 19.64,72 L20.378,71.537 Z"></path>
        <path class="svg-desktop-white" fill="url(#knoxville-chamber-logo-c)" fill-rule="nonzero" d="M62.952,64 L52,57.188 C63.196,51.338 74.931,47.974 84,46 L84,47.257 C83.9959358,48.8748164 83.8856989,50.4906222 83.67,52.094 C76.4085072,55.4086077 69.4726819,59.3946065 62.953,64 L62.952,64 Z"></path>
        <path class="svg-desktop-white" fill="url(#knoxville-chamber-logo-d)" fill-rule="nonzero" d="M74.655,71.564 L68,67.38 C72.6857765,63.9340477 77.6210178,60.8408731 82.765,58.126 L83,58 C81.6976647,62.5792959 79.5269209,66.8654456 76.606,70.625 C76.2004744,71.0942518 75.782663,71.552744 75.353,72 L74.655,71.564 Z"></path>
        <path class="svg-desktop-white" fill="#45555F" fill-rule="nonzero" d="M47.152,59 L31.391,69.17 L22,75.216 C36.1144448,88.3358857 57.9883181,88.2505776 72,75.021 L62.913,69.157 L47.152,59 Z M46.564,64.132 L46.65,63.393 L46.703,62.883 L47.601,62.883 L47.687,63.635 L47.753,64.226 L46.557,64.226 L46.564,64.132 Z M46.214,68.66 L46.458,66.39 L47.859,66.39 L47.912,66.873 L48.15,69.083 L46.167,69.083 L46.214,68.66 Z M49.32,81.18 L44.832,81.18 L44.832,81.032 L45.057,78.916 L45.255,77.116 L45.335,76.404 L45.375,76.014 L45.447,75.343 L45.744,72.615 L48.54,72.615 L48.936,76.256 L48.936,76.377 L48.976,76.747 L49.207,78.889 L49.432,80.959 L49.432,81.153 L49.32,81.18 Z"></path>
        <path class="svg-desktop-white" fill="url(#knoxville-chamber-logo-e)" fill-rule="nonzero" d="M83,36.928 C79.759,26.527 72.005,18.066 61.817,13.812 L61.61,13.733 C61.31,13.609 61.01,13.497 60.703,13.379 C56.4165511,11.8015403 51.8844947,10.9960897 47.317,11 L45.262,11 L44.242,11.059 L43.635,11.118 L42.735,11.203 L42.067,11.288 L41.22,11.406 L40.553,11.524 L39.74,11.669 L39.073,11.813 L38.286,11.99 L37.619,12.154 L36.852,12.357 L36.185,12.553 L35.438,12.776 L34.771,12.999 L34.037,13.255 L33.37,13.497 L32.65,13.779 L31.983,14.048 L31.316,14.356 L30.689,14.644 L30.022,14.978 L29.408,15.286 L28.741,15.64 L28.148,15.975 L27.481,16.355 L26.901,16.709 L26.233,17.115 L25.92,17.325 C19.537,21.647 14.674,27.806 12,34.955 L18.29,34.955 L18.29,43.941 L21.931,43.941 L21.931,36.102 C19.635,34.92 18.441,32.363 19.027,29.882 C19.611,27.4 21.827,25.62 24.419,25.55 C27.009,25.48 29.322,27.137 30.045,29.583 C30.769,32.029 29.72,34.647 27.494,35.952 L27.494,40.042 L29.108,40.042 L29.108,37.046 L35.631,37.046 L35.631,32.838 L39.026,32.838 L40.22,33.788 L40.22,44 L43.795,44 L43.795,37.092 L43.315,35.682 L45.569,35.682 L45.569,34.522 L47.643,34.522 L47.643,35.696 L48.243,35.696 L50.912,37.406 L51.679,37.406 L51.679,35.35 L54.94,35.35 L55.607,35.658 L55.607,37.303 L59.989,37.303 L61.81,39.269 L61.81,43.994 L63.991,43.994 L63.991,29.28 L64.658,29.28 L64.658,27.53 L68.24,27.53 L68.24,29.077 L72.295,29.077 L75.33,32.557 L78.191,32.557 L78.191,34.924 L79.371,34.924 L79.945,35.644 L79.945,36.896 L83,36.929 L83,36.928 Z"></path>
        <path class="logo-outer-circle svg-desktop-white" fill="#45555F" fill-rule="nonzero" d="M47.5,0 C21.266,0 0,21.266 0,47.5 C0,73.734 21.266,95 47.5,95 C73.734,95 95,73.734 95,47.5 C94.97,21.279 73.721,0.03 47.5,0 Z M4.733,47.29 C4.733,23.666 23.883,4.515 47.507,4.515 C71.13,4.515 90.28,23.665 90.28,47.289 C90.28,70.912 71.13,90.063 47.507,90.063 C23.9,90.023 4.773,70.896 4.733,47.289 L4.733,47.29 Z"></path>
    </g>
</svg>